<?xml version="1.0" standalone="no"?>
<!DOCTYPE svg PUBLIC "-//W3C//DTD SVG 20010904//EN"
 "http://www.w3.org/TR/2001/REC-SVG-20010904/DTD/svg10.dtd">
<svg version="1.0" xmlns="http://www.w3.org/2000/svg"
 width="500.000000pt" height="500.000000pt" viewBox="0 0 500.000000 500.000000"
 preserveAspectRatio="xMidYMid meet">
<metadata>
Created by potrace 1.14, written by Peter Selinger 2001-2017
</metadata>
<g transform="translate(0.000000,500.000000) scale(0.100000,-0.100000)"
fill="#000000" stroke="none">
<path d="M870 4993 c-78 -13 -205 -50 -275 -81 -247 -108 -458 -337 -540 -584
-52 -158 -49 1 -52 -2246 l-3 -2082 2072 3 c1140 1 2084 6 2098 9 14 4 48 13
75 19 207 48 428 197 562 379 52 69 116 196 143 280 51 158 49 63 49 2258 l1
2052 -2052 -1 c-1129 -1 -2064 -4 -2078 -6z"/>
</g>
</svg>
