<svg width="22" height="22" viewBox="0 0 22 22" fill="none" xmlns="http://www.w3.org/2000/svg">
<path d="M21.2594 18.1695L14.0844 10.9672L21.2758 3.8578C21.5711 3.56249 21.5711 3.08124 21.2758 2.78593L19.2305 0.729675C19.0883 0.587488 18.8969 0.510925 18.6946 0.510925C18.4922 0.510925 18.3008 0.592957 18.1586 0.729675L11 7.81717L3.83052 0.735144C3.68833 0.592957 3.49692 0.516394 3.29458 0.516394C3.09224 0.516394 2.90083 0.598426 2.75864 0.735144L0.718799 2.79139C0.423486 3.08671 0.423486 3.56796 0.718799 3.86327L7.91021 10.9726L0.740674 18.1695C0.598486 18.3117 0.516455 18.5031 0.516455 18.7055C0.516455 18.9078 0.593018 19.0992 0.740674 19.2414L2.78599 21.2976C2.93364 21.4453 3.12505 21.5219 3.32192 21.5219C3.51333 21.5219 3.71021 21.4508 3.85786 21.2976L11 14.1226L18.1477 21.2922C18.2954 21.4398 18.4868 21.5164 18.6836 21.5164C18.875 21.5164 19.0719 21.4453 19.2196 21.2922L21.2649 19.2359C21.4071 19.0937 21.4891 18.9023 21.4891 18.7C21.4836 18.5031 21.4016 18.3117 21.2594 18.1695Z" fill="#737373"/>
</svg>
